<svg id="visual" viewBox="0 0 900 600" width="900" height="600" xmlns="http://www.w3.org/2000/svg" xmlns:xlink="http://www.w3.org/1999/xlink" version="1.1"><path d="M0 187L82 103L164 157L245 187L327 187L409 139L491 187L573 145L655 127L736 193L818 127L900 85L900 0L818 0L736 0L655 0L573 0L491 0L409 0L327 0L245 0L164 0L82 0L0 0Z" fill="#00cc8e"></path><path d="M0 229L82 169L164 199L245 241L327 223L409 223L491 229L573 235L655 223L736 229L818 211L900 139L900 83L818 125L736 191L655 125L573 143L491 185L409 137L327 185L245 185L164 155L82 101L0 185Z" fill="#00b98a"></path><path d="M0 379L82 331L164 367L245 295L327 397L409 331L491 355L573 295L655 295L736 343L818 277L900 301L900 137L818 209L736 227L655 221L573 233L491 227L409 221L327 221L245 239L164 197L82 167L0 227Z" fill="#00a784"></path><path d="M0 547L82 517L164 553L245 499L327 541L409 505L491 493L573 499L655 481L736 517L818 547L900 535L900 299L818 275L736 341L655 293L573 293L491 353L409 329L327 395L245 293L164 365L82 329L0 377Z" fill="#00957c"></path><path d="M0 601L82 601L164 601L245 601L327 601L409 601L491 601L573 601L655 601L736 601L818 601L900 601L900 533L818 545L736 515L655 479L573 497L491 491L409 503L327 539L245 497L164 551L82 515L0 545Z" fill="#038373"></path></svg>